<?xml version="1.0" encoding="UTF-8" standalone="no"?>
<svg
   xmlns:dc="http://purl.org/dc/elements/1.1/"
   xmlns:cc="http://creativecommons.org/ns#"
   xmlns:rdf="http://www.w3.org/1999/02/22-rdf-syntax-ns#"
   xmlns:svg="http://www.w3.org/2000/svg"
   xmlns="http://www.w3.org/2000/svg"
   xmlns:sodipodi="http://sodipodi.sourceforge.net/DTD/sodipodi-0.dtd"
   xmlns:inkscape="http://www.inkscape.org/namespaces/inkscape"
   width="48"
   height="48"
   id="svg2"
   version="1.1"
   inkscape:version="0.48.4 r9939"
   sodipodi:docname="cancel.svg">
  <metadata
     id="metadata10">
    <rdf:RDF>
      <cc:Work
         rdf:about="">
        <dc:format>image/svg+xml</dc:format>
        <dc:type
           rdf:resource="http://purl.org/dc/dcmitype/StillImage" />
        <dc:title />
      </cc:Work>
    </rdf:RDF>
  </metadata>
  <defs
     id="defs8" />
  <sodipodi:namedview
     pagecolor="#ffffff"
     bordercolor="#666666"
     borderopacity="1"
     objecttolerance="10"
     gridtolerance="10"
     guidetolerance="10"
     inkscape:pageopacity="0"
     inkscape:pageshadow="2"
     inkscape:window-width="1680"
     inkscape:window-height="1008"
     id="namedview6"
     showgrid="false"
     inkscape:zoom="13.906433"
     inkscape:cx="18.038717"
     inkscape:cy="22.403365"
     inkscape:window-x="1920"
     inkscape:window-y="29"
     inkscape:window-maximized="1"
     inkscape:current-layer="svg2" />
  <path
     style="fill:#e6e6e6"
     d="M 24 1.5 C 11.573593 1.5 1.5 11.573593 1.5 24 C 1.5 36.426407 11.573593 46.5 24 46.5 C 36.426407 46.5 46.5 36.426407 46.5 24 C 46.5 11.573593 36.426407 1.5 24 1.5 z M 16.0625 10.40625 C 16.337825 10.410659 16.629818 10.536068 16.84375 10.75 L 24 17.90625 L 31.15625 10.75 C 31.584113 10.322134 32.268564 10.299814 32.6875 10.71875 L 37.28125 15.3125 C 37.700183 15.731436 37.677863 16.415887 37.25 16.84375 L 30.09375 24 L 37.25 31.15625 C 37.677866 31.584113 37.700186 32.268564 37.28125 32.6875 L 32.6875 37.28125 C 32.268564 37.700183 31.584113 37.677863 31.15625 37.25 L 24 30.09375 L 16.84375 37.25 C 16.415887 37.677866 15.731436 37.700186 15.3125 37.28125 L 10.71875 32.6875 C 10.299817 32.268564 10.322137 31.584113 10.75 31.15625 L 17.90625 24 L 10.75 16.84375 C 10.322134 16.415887 10.299814 15.731436 10.71875 15.3125 L 15.3125 10.71875 C 15.521968 10.509284 15.787175 10.401841 16.0625 10.40625 z "
     id="path2993" />
</svg>
