<?xml version="1.0" encoding="UTF-8" standalone="no"?>
<svg
   xmlns:dc="http://purl.org/dc/elements/1.1/"
   xmlns:cc="http://creativecommons.org/ns#"
   xmlns:rdf="http://www.w3.org/1999/02/22-rdf-syntax-ns#"
   xmlns:svg="http://www.w3.org/2000/svg"
   xmlns="http://www.w3.org/2000/svg"
   xmlns:sodipodi="http://sodipodi.sourceforge.net/DTD/sodipodi-0.dtd"
   xmlns:inkscape="http://www.inkscape.org/namespaces/inkscape"
   width="48"
   height="48"
   id="svg2"
   version="1.1"
   inkscape:version="0.48.4 r9939"
   sodipodi:docname="check.svg">
  <metadata
     id="metadata10">
    <rdf:RDF>
      <cc:Work
         rdf:about="">
        <dc:format>image/svg+xml</dc:format>
        <dc:type
           rdf:resource="http://purl.org/dc/dcmitype/StillImage" />
        <dc:title></dc:title>
      </cc:Work>
    </rdf:RDF>
  </metadata>
  <defs
     id="defs8" />
  <sodipodi:namedview
     pagecolor="#ffffff"
     bordercolor="#666666"
     borderopacity="1"
     objecttolerance="10"
     gridtolerance="10"
     guidetolerance="10"
     inkscape:pageopacity="0"
     inkscape:pageshadow="2"
     inkscape:window-width="1680"
     inkscape:window-height="1008"
     id="namedview6"
     showgrid="false"
     inkscape:zoom="13.906433"
     inkscape:cx="14.898225"
     inkscape:cy="27.99782"
     inkscape:window-x="1920"
     inkscape:window-y="29"
     inkscape:window-maximized="1"
     inkscape:current-layer="svg2" />
  <g
     id="g3791"
     transform="translate(0.410445,-0.45312559)"
     style="fill:#e6e6e6">
    <path
       id="rect2993"
       d="m 8.84375,11.09375 c -4.5138281,0 -8.21875,3.704922 -8.21875,8.21875 l 0,18.75 c 0,4.513828 3.7049219,8.21875 8.21875,8.21875 l 18.75,0 c 4.513828,0 8.21875,-3.704922 8.21875,-8.21875 l 0,-17.40625 -5.375,7.625 0,9.78125 c 0,1.632146 -1.211604,2.84375 -2.84375,2.84375 l -18.75,0 c -1.6321458,0 -2.875,-1.211604 -2.875,-2.84375 l 0,-18.75 c 0,-1.632146 1.2428542,-2.84375 2.875,-2.84375 l 17.75,0 4.34375,-4.65625 c -1.023081,-0.46042 -2.155832,-0.71875 -3.34375,-0.71875 l -18.75,0 z"
       style="font-size:medium;font-style:normal;font-variant:normal;font-weight:normal;font-stretch:normal;text-indent:0;text-align:start;text-decoration:none;line-height:normal;letter-spacing:normal;word-spacing:normal;text-transform:none;direction:ltr;block-progression:tb;writing-mode:lr-tb;text-anchor:start;baseline-shift:baseline;color:#000000;fill:#e6e6e6;fill-opacity:1;stroke:none;stroke-width:5.36923312999999958;marker:none;visibility:visible;display:inline;overflow:visible;enable-background:accumulate;font-family:Sans;-inkscape-font-specification:Sans"
       inkscape:connector-curvature="0" />
    <path
       sodipodi:nodetypes="cccczczczzcc"
       inkscape:connector-curvature="0"
       id="path3786"
       d="m 5.9684608,20.817154 5.8113572,-3.466705 6.935672,7.16619 2.271095,-0.628764 c 0,0 7.339726,-7.52364 11.244946,-11.61869 3.905219,-4.0950505 12.561795,-9.6438432 12.561795,-9.6438432 0,0 0.928966,-0.063798 1.50484,1.5548556 0.575874,1.6186535 0,2.2545406 0,2.2545406 0,0 -8.385202,7.740465 -14.672188,17.803098 -6.286986,10.062632 -4.613853,11.913827 -7.825864,11.927087 -3.212011,0.01325 -3.374388,-0.11427 -3.374388,-0.11427 z"
       style="fill:#e6e6e6;fill-opacity:1;stroke:none" />
  </g>
</svg>
