<?xml version="1.0" encoding="UTF-8" standalone="no"?>
<svg
   xmlns:dc="http://purl.org/dc/elements/1.1/"
   xmlns:cc="http://creativecommons.org/ns#"
   xmlns:rdf="http://www.w3.org/1999/02/22-rdf-syntax-ns#"
   xmlns:svg="http://www.w3.org/2000/svg"
   xmlns="http://www.w3.org/2000/svg"
   xmlns:sodipodi="http://sodipodi.sourceforge.net/DTD/sodipodi-0.dtd"
   xmlns:inkscape="http://www.inkscape.org/namespaces/inkscape"
   width="48"
   height="48"
   id="svg2"
   version="1.1"
   inkscape:version="0.48.4 r9939"
   sodipodi:docname="settings.svg">
  <metadata
     id="metadata10">
    <rdf:RDF>
      <cc:Work
         rdf:about="">
        <dc:format>image/svg+xml</dc:format>
        <dc:type
           rdf:resource="http://purl.org/dc/dcmitype/StillImage" />
        <dc:title />
      </cc:Work>
    </rdf:RDF>
  </metadata>
  <defs
     id="defs8" />
  <sodipodi:namedview
     pagecolor="#ffffff"
     bordercolor="#666666"
     borderopacity="1"
     objecttolerance="10"
     gridtolerance="10"
     guidetolerance="10"
     inkscape:pageopacity="0"
     inkscape:pageshadow="2"
     inkscape:window-width="755"
     inkscape:window-height="822"
     id="namedview6"
     showgrid="false"
     inkscape:zoom="4.9166667"
     inkscape:cx="20.895963"
     inkscape:cy="14.985575"
     inkscape:window-x="2396"
     inkscape:window-y="184"
     inkscape:window-maximized="0"
     inkscape:current-layer="svg2" />
  <path
     style="color:#000000;fill:#e6e6e6;fill-opacity:1;fill-rule:nonzero;stroke:none;stroke-width:1;marker:none;visibility:visible;display:inline;overflow:visible;enable-background:accumulate"
     d="M 24.1875 2.09375 C 22.35482 2.09375 20.63569 2.34281 19.125 2.8125 C 18.44266 4.08484 18.03125 5.63831 18.03125 7.3125 C 18.03125 7.4404359 18.057859 7.5610896 18.0625 7.6875 C 16.146824 8.3803077 14.379385 9.3803645 12.84375 10.65625 C 12.739431 10.59095 12.639013 10.530967 12.53125 10.46875 C 11.081359 9.6316548 9.5367988 9.201496 8.09375 9.15625 C 6.9316415 10.229701 5.85384 11.600352 4.9375 13.1875 C 4.107625 14.624886 3.5204285 16.089024 3.15625 17.5 C 3.9160019 18.772071 5.0984619 19.917945 6.59375 20.78125 C 6.6775665 20.829641 6.7593394 20.860531 6.84375 20.90625 C 6.6621316 21.911583 6.5625 22.942628 6.5625 24 C 6.5625 25.036019 6.6692378 26.045035 6.84375 27.03125 C 6.7426057 27.085247 6.6315682 27.129581 6.53125 27.1875 C 5.081359 28.024595 3.9794588 29.147906 3.21875 30.375 C 3.5673315 31.918141 4.20866 33.537852 5.125 35.125 C 5.954875 36.562386 6.8976485 37.822874 7.9375 38.84375 C 9.4190219 38.821821 11.004712 38.363305 12.5 37.5 C 12.598311 37.44324 12.685718 37.371798 12.78125 37.3125 C 14.328994 38.608483 16.125399 39.611944 18.0625 40.3125 C 18.057859 40.43891 18.03125 40.559564 18.03125 40.6875 C 18.03125 42.36169 18.44266 43.91516 19.125 45.1875 C 20.63569 45.65719 22.35482 45.90625 24.1875 45.90625 C 25.84725 45.90625 27.40847 45.7026 28.8125 45.3125 C 29.53427 44.0185 29.9375 42.41411 29.9375 40.6875 C 29.9375 40.557011 29.910983 40.441476 29.90625 40.3125 C 31.860742 39.609396 33.659923 38.589664 35.21875 37.28125 C 35.314282 37.340548 35.401689 37.41199 35.5 37.46875 C 36.995288 38.332055 38.580978 38.790571 40.0625 38.8125 C 41.102352 37.791624 42.045125 36.531136 42.875 35.09375 C 43.79134 33.506602 44.432668 31.886891 44.78125 30.34375 C 44.020541 29.116656 42.918641 27.993345 41.46875 27.15625 C 41.367295 27.097675 41.258549 27.054565 41.15625 27 C 41.32726 26.023365 41.4375 25.025342 41.4375 24 C 41.4375 22.953305 41.334298 21.933281 41.15625 20.9375 C 41.240661 20.891781 41.322434 20.860891 41.40625 20.8125 C 42.901538 19.949195 44.083998 18.803321 44.84375 17.53125 C 44.479572 16.120274 43.892375 14.656136 43.0625 13.21875 C 42.14616 11.631602 41.068358 10.260951 39.90625 9.1875 C 38.463201 9.232746 36.918641 9.6629048 35.46875 10.5 C 35.368756 10.557732 35.28453 10.62711 35.1875 10.6875 C 33.63655 9.3923075 31.846694 8.3855504 29.90625 7.6875 C 29.910983 7.5585241 29.9375 7.4429891 29.9375 7.3125 C 29.9375 5.58589 29.53427 3.9815 28.8125 2.6875 C 27.40847 2.2974 25.84725 2.09375 24.1875 2.09375 z M 24 15 C 29.03991 15 33.125 19.02137 33.125 24 C 33.125 28.97863 29.03991 33.03125 24 33.03125 C 18.96009 33.03125 14.875 28.97863 14.875 24 C 14.875 19.02137 18.96009 15 24 15 z "
     id="path4250" />
</svg>
