<?xml version="1.0" encoding="UTF-8" standalone="no"?>
<svg
   xmlns:dc="http://purl.org/dc/elements/1.1/"
   xmlns:cc="http://creativecommons.org/ns#"
   xmlns:rdf="http://www.w3.org/1999/02/22-rdf-syntax-ns#"
   xmlns:svg="http://www.w3.org/2000/svg"
   xmlns="http://www.w3.org/2000/svg"
   xmlns:sodipodi="http://sodipodi.sourceforge.net/DTD/sodipodi-0.dtd"
   xmlns:inkscape="http://www.inkscape.org/namespaces/inkscape"
   width="48"
   height="48"
   id="svg2"
   version="1.1"
   inkscape:version="0.48.4 r9939"
   sodipodi:docname="up.svg">
  <metadata
     id="metadata10">
    <rdf:RDF>
      <cc:Work
         rdf:about="">
        <dc:format>image/svg+xml</dc:format>
        <dc:type
           rdf:resource="http://purl.org/dc/dcmitype/StillImage" />
        <dc:title />
      </cc:Work>
    </rdf:RDF>
  </metadata>
  <defs
     id="defs8" />
  <sodipodi:namedview
     pagecolor="#ffffff"
     bordercolor="#666666"
     borderopacity="1"
     objecttolerance="10"
     gridtolerance="10"
     guidetolerance="10"
     inkscape:pageopacity="0"
     inkscape:pageshadow="2"
     inkscape:window-width="755"
     inkscape:window-height="822"
     id="namedview6"
     showgrid="false"
     inkscape:zoom="4.9166667"
     inkscape:cx="20.328623"
     inkscape:cy="16.286653"
     inkscape:window-x="861"
     inkscape:window-y="98"
     inkscape:window-maximized="0"
     inkscape:current-layer="svg2" />
  <path
     inkscape:connector-curvature="0"
     style="color:#000000;fill:#e6e6e6;fill-opacity:1;fill-rule:nonzero;stroke-width:1;stroke-linecap:butt;stroke-linejoin:miter;stroke-miterlimit:4;stroke-opacity:1;stroke-dasharray:none;stroke-dashoffset:0;marker:none;visibility:visible;display:inline;overflow:visible;enable-background:accumulate"
     d="m 7.8740842,10.38864 c -5.0193681,0.0267 -5.4049871,0.0619 -5.7812501,0.21875 -0.4786131,0.19952 -1.0517011,0.77071 -1.18750012,1.21875 -0.06497,0.21436 -0.08126,5.26655 -0.0625,15.343751 l 0.03125,15.03125 0.28125002,0.40625 c 0.367868,0.49604 0.6867431,0.69937 1.2500001,0.84375 0.605104,0.1551 42.3091399,0.18533 43.0624999,0.0312 0.59941,-0.1226 1.00979,-0.37946 1.375,-0.875 l 0.3125,-0.40625 0,-14.15625 c 0.0199,-10.051361 0.0107,-14.290361 -0.0625,-14.531251 -0.13117,-0.43171 -0.59614,-0.93356 -1.09375,-1.1875 l -0.375,-0.1875 -14.65625,-0.0312 -14.65625,-0.0312 -0.75,-0.78125 -0.71875,-0.8125 -0.78125,-0.0625 c -0.42859,-0.0326 -3.22161,-0.0471 -6.1874998,-0.0312 z m 16.7812498,6.1875 11.6875,11.687501 -7.375,0 0,10.90625 -8.03125,0 0,-11.09375 -7.96875,-0.0937 11.6875,-11.406251 z"
     id="path3010" />
</svg>
