<?xml version="1.0" encoding="UTF-8" standalone="no"?>
<svg
   xmlns:dc="http://purl.org/dc/elements/1.1/"
   xmlns:cc="http://creativecommons.org/ns#"
   xmlns:rdf="http://www.w3.org/1999/02/22-rdf-syntax-ns#"
   xmlns:svg="http://www.w3.org/2000/svg"
   xmlns="http://www.w3.org/2000/svg"
   xmlns:sodipodi="http://sodipodi.sourceforge.net/DTD/sodipodi-0.dtd"
   xmlns:inkscape="http://www.inkscape.org/namespaces/inkscape"
   width="48"
   height="48"
   id="svg2"
   version="1.1"
   inkscape:version="0.48.4 r9939"
   sodipodi:docname="zoom-out.svg">
  <metadata
     id="metadata10">
    <rdf:RDF>
      <cc:Work
         rdf:about="">
        <dc:format>image/svg+xml</dc:format>
        <dc:type
           rdf:resource="http://purl.org/dc/dcmitype/StillImage" />
        <dc:title />
      </cc:Work>
    </rdf:RDF>
  </metadata>
  <defs
     id="defs8" />
  <sodipodi:namedview
     pagecolor="#ffffff"
     bordercolor="#666666"
     borderopacity="1"
     objecttolerance="10"
     gridtolerance="10"
     guidetolerance="10"
     inkscape:pageopacity="0"
     inkscape:pageshadow="2"
     inkscape:window-width="857"
     inkscape:window-height="833"
     id="namedview6"
     showgrid="false"
     inkscape:zoom="13.906433"
     inkscape:cx="14.977998"
     inkscape:cy="25.883616"
     inkscape:window-x="2022"
     inkscape:window-y="108"
     inkscape:window-maximized="0"
     inkscape:current-layer="svg2" />
  <path
     inkscape:connector-curvature="0"
     style="fill:#e6e6e6;fill-opacity:1;stroke:none"
     d="M 16.28033,0.71565001 C 7.4444999,0.71565001 0.3115803,7.84857 0.3115803,16.6844 c 0,8.83582 7.1329196,16 15.9687497,16 3.9136,0 7.503841,-1.41933 10.281251,-3.75 l 0,3.125 15.289195,15.22495 3.6875,0 L 47.68842,45.150906 47.67571,41.884487 32.155333,26.3094 c 0,0 -2.26161,-0.0246 -3.09375,-0.0312 2.00938,-2.67271 3.21875,-5.98874 3.21875,-9.59375 0,-8.83583 -7.16418,-15.96874999 -16.000001,-15.96874999 z m 0,3.21874999 c 7.048521,0 12.781251,5.70147 12.781251,12.75 0,7.04852 -5.73273,12.78125 -12.781251,12.78125 -7.0485301,0 -12.7500001,-5.73273 -12.7500001,-12.78125 0,-7.04853 5.70147,-12.75 12.7500001,-12.75 z"
     id="path4448"
     sodipodi:nodetypes="cssccccccccsccsssss" />
  <path
     style="font-size:medium;font-style:normal;font-variant:normal;font-weight:normal;font-stretch:normal;text-indent:0;text-align:start;text-decoration:none;line-height:normal;letter-spacing:normal;word-spacing:normal;text-transform:none;direction:ltr;block-progression:tb;writing-mode:lr-tb;text-anchor:start;baseline-shift:baseline;color:#000000;fill:#e6e6e6;fill-opacity:1;stroke:none;stroke-width:1.82500005000000010;marker:none;visibility:visible;display:inline;overflow:visible;enable-background:accumulate;font-family:Sans;-inkscape-font-specification:Sans"
     d="m 6.2405908,15.594092 0,0.90625 0,0.90625 1.84375,0 16.3437502,0 1.8125,0 0,-0.90625 0,-0.90625 -0.90625,0 -18.1562502,0 -0.9375,0 z"
     id="rect3184"
     inkscape:connector-curvature="0" />
</svg>
