<?xml version="1.0" encoding="UTF-8" standalone="no"?>
<svg
   xmlns:dc="http://purl.org/dc/elements/1.1/"
   xmlns:cc="http://creativecommons.org/ns#"
   xmlns:rdf="http://www.w3.org/1999/02/22-rdf-syntax-ns#"
   xmlns:svg="http://www.w3.org/2000/svg"
   xmlns="http://www.w3.org/2000/svg"
   xmlns:sodipodi="http://sodipodi.sourceforge.net/DTD/sodipodi-0.dtd"
   xmlns:inkscape="http://www.inkscape.org/namespaces/inkscape"
   width="48"
   height="48"
   id="svg2"
   version="1.1"
   inkscape:version="0.48.4 r9939"
   sodipodi:docname="zoom-fit-height.svg">
  <metadata
     id="metadata10">
    <rdf:RDF>
      <cc:Work
         rdf:about="">
        <dc:format>image/svg+xml</dc:format>
        <dc:type
           rdf:resource="http://purl.org/dc/dcmitype/StillImage" />
        <dc:title />
      </cc:Work>
    </rdf:RDF>
  </metadata>
  <defs
     id="defs8" />
  <sodipodi:namedview
     pagecolor="#ffffff"
     bordercolor="#666666"
     borderopacity="1"
     objecttolerance="10"
     gridtolerance="10"
     guidetolerance="10"
     inkscape:pageopacity="0"
     inkscape:pageshadow="2"
     inkscape:window-width="857"
     inkscape:window-height="833"
     id="namedview6"
     showgrid="false"
     inkscape:zoom="4.9166667"
     inkscape:cx="55.623335"
     inkscape:cy="12.446618"
     inkscape:window-x="2248"
     inkscape:window-y="160"
     inkscape:window-maximized="0"
     inkscape:current-layer="svg2" />
  <g
     id="g3154"
     transform="translate(2.4419557,0.83664099)"
     style="fill:#e6e6e6">
    <path
       sodipodi:nodetypes="cssccccccccsccsssss"
       id="path4448"
       d="m 13.838374,-0.12099098 c -8.8358298,0 -15.9687494,7.13291998 -15.9687494,15.96874998 0,8.83582 7.1329196,16 15.9687494,16 3.9136,0 7.503841,-1.41933 10.281251,-3.75 l 0,3.125 15.289195,15.22495 3.6875,0 2.150144,-2.133444 -0.01271,-3.266419 -15.520377,-15.575087 c 0,0 -2.26161,-0.0246 -3.09375,-0.0312 2.00938,-2.67271 3.21875,-5.98874 3.21875,-9.59375 0,-8.83583 -7.16418,-15.96874998 -16.000001,-15.96874998 z m 0,3.21874998 c 7.048521,0 12.781251,5.70147 12.781251,12.75 0,7.04852 -5.73273,12.78125 -12.781251,12.78125 -7.0485298,0 -12.7499998,-5.73273 -12.7499998,-12.78125 0,-7.04853 5.70147,-12.75 12.7499998,-12.75 z"
       style="fill:#e6e6e6;fill-opacity:1;stroke:none"
       inkscape:connector-curvature="0" />
    <path
       id="path4487"
       d="M 13.6875,3.1875 13.125,3.625 9.25,6.5625 l 1.21875,1.59375 2.21875,-1.6875 0,18.84375 -2.21875,-1.6875 -1.21875,1.59375 3.875,2.9375 0.5625,0.4375 0.625,-0.40625 3.9375,-2.75 -1.125,-1.625 -2.46875,1.71875 0,-19.25 L 17.125,8 18.25,6.34375 14.3125,3.59375 13.6875,3.1875 z"
       style="font-size:medium;font-style:normal;font-variant:normal;font-weight:normal;font-stretch:normal;text-indent:0;text-align:start;text-decoration:none;line-height:normal;letter-spacing:normal;word-spacing:normal;text-transform:none;direction:ltr;block-progression:tb;writing-mode:lr-tb;text-anchor:start;baseline-shift:baseline;color:#000000;fill:#e6e6e6;fill-opacity:1;stroke:none;stroke-width:2;marker:none;visibility:visible;display:inline;overflow:visible;enable-background:accumulate;font-family:Sans;-inkscape-font-specification:Sans"
       inkscape:connector-curvature="0" />
  </g>
</svg>
