<?xml version="1.0" encoding="UTF-8" standalone="no"?>
<!-- Created with Inkscape (http://www.inkscape.org/) -->

<svg
   xmlns:dc="http://purl.org/dc/elements/1.1/"
   xmlns:cc="http://creativecommons.org/ns#"
   xmlns:rdf="http://www.w3.org/1999/02/22-rdf-syntax-ns#"
   xmlns:svg="http://www.w3.org/2000/svg"
   xmlns="http://www.w3.org/2000/svg"
   xmlns:sodipodi="http://sodipodi.sourceforge.net/DTD/sodipodi-0.dtd"
   xmlns:inkscape="http://www.inkscape.org/namespaces/inkscape"
   width="512"
   height="512"
   id="svg3061"
   version="1.1"
   inkscape:version="0.48.4 r9939"
   sodipodi:docname="folder.svg">
  <defs
     id="defs3063" />
  <sodipodi:namedview
     id="base"
     pagecolor="#ffffff"
     bordercolor="#666666"
     borderopacity="1.0"
     inkscape:pageopacity="0.0"
     inkscape:pageshadow="2"
     inkscape:zoom="0.53027343"
     inkscape:cx="169.92316"
     inkscape:cy="201.68732"
     inkscape:document-units="px"
     inkscape:current-layer="layer1"
     showgrid="false"
     inkscape:window-width="674"
     inkscape:window-height="591"
     inkscape:window-x="998"
     inkscape:window-y="406"
     inkscape:window-maximized="0" />
  <metadata
     id="metadata3066">
    <rdf:RDF>
      <cc:Work
         rdf:about="">
        <dc:format>image/svg+xml</dc:format>
        <dc:type
           rdf:resource="http://purl.org/dc/dcmitype/StillImage" />
        <dc:title></dc:title>
      </cc:Work>
    </rdf:RDF>
  </metadata>
  <g
     inkscape:label="Layer 1"
     inkscape:groupmode="layer"
     id="layer1"
     transform="translate(0,-540.36218)">
    <g
       id="g2996"
       transform="translate(-125.14627,239.92338)"
       style="color:#000000;fill:#4d4d4d;fill-opacity:1;fill-rule:nonzero;stroke-width:1;stroke-linecap:butt;stroke-linejoin:miter;stroke-miterlimit:4;stroke-opacity:1;stroke-dasharray:none;stroke-dashoffset:0;marker:none;visibility:visible;display:inline;overflow:visible;enable-background:accumulate">
      <path
         style="color:#000000;fill:#4d4d4d;fill-opacity:1;fill-rule:nonzero;stroke-width:1;stroke-linecap:butt;stroke-linejoin:miter;stroke-miterlimit:4;stroke-opacity:1;stroke-dasharray:none;stroke-dashoffset:0;marker:none;visibility:visible;display:inline;overflow:visible;enable-background:accumulate"
         d="m 154.52461,752.07121 c -5.95374,-1.60023 -9.27903,-3.99842 -13.16747,-9.49637 l -3,-4.24177 -0.29597,-166.664 c -0.19834,-111.69173 0.042,-167.83335 0.72879,-170.20922 1.43542,-4.96595 7.23531,-11.37569 12.29434,-13.58706 3.97717,-1.73848 8.21715,-1.88975 61.27284,-2.18608 31.35,-0.1751 60.70663,-0.0227 65.23696,0.33868 l 8.23695,0.65704 7.76305,8.82264 7.76304,8.82263 155,0.33868 155,0.33869 4.09468,2.19109 c 5.25982,2.81455 10.02002,8.25742 11.40653,13.04233 0.77366,2.66993 1.00516,49.52528 0.79511,160.9306 l -0.29632,157.16402 -3.03716,4.32119 c -3.86033,5.49238 -8.21279,8.41695 -14.54862,9.77575 -7.96319,1.70779 -448.85068,1.36028 -455.24675,-0.35884 z"
         id="path3010"
         inkscape:connector-curvature="0" />
      <path
         style="color:#000000;fill:#4d4d4d;fill-opacity:1;fill-rule:nonzero;stroke-width:1;stroke-linecap:butt;stroke-linejoin:miter;stroke-miterlimit:4;stroke-opacity:1;stroke-dasharray:none;stroke-dashoffset:0;marker:none;visibility:visible;display:inline;overflow:visible;enable-background:accumulate"
         d="m 153.60511,751.07832 c -5.65996,-2.01984 -10.30087,-6.01822 -12.67304,-10.91845 l -2.1298,-4.39959 -0.0519,-166.14792 -0.0519,-166.14793 2.21208,-4.56954 c 2.49842,-5.16104 8.3149,-9.87335 14.11443,-11.43499 2.53433,-0.68243 25.51471,-0.93893 66.92851,-0.74705 l 63.06899,0.29222 3.06712,3.5 c 1.68692,1.925 5.43069,6.0875 8.31951,9.25 l 5.25239,5.75 153.23184,0 c 111.92036,0 154.25896,0.30773 157.0416,1.14143 5.20571,1.55967 10.33228,6.00821 12.80032,11.10736 2.04856,4.23247 2.0581,4.94228 2.16582,161.02842 l 0.1082,156.77722 -2.1784,4.49997 c -2.41692,4.99269 -7.0288,8.98728 -12.72163,11.01885 -5.57563,1.98974 -452.92843,1.98974 -458.50406,0 z"
         id="path3008"
         inkscape:connector-curvature="0" />
      <path
         style="color:#000000;fill:#4d4d4d;fill-opacity:1;fill-rule:nonzero;stroke-width:1;stroke-linecap:butt;stroke-linejoin:miter;stroke-miterlimit:4;stroke-opacity:1;stroke-dasharray:none;stroke-dashoffset:0;marker:none;visibility:visible;display:inline;overflow:visible;enable-background:accumulate"
         d="m 230.35714,751.58192 c -70.43073,-0.52764 -77.2696,-0.72437 -80.16,-2.30599 -4.2156,-2.30676 -8.79397,-8.005 -10.19857,-12.69314 -1.63123,-5.44456 -1.63123,-328.71088 0,-334.15544 1.56545,-5.22501 6.40567,-10.81204 11.28783,-13.02947 3.82366,-1.73666 7.99239,-1.85022 68.68057,-1.87085 l 64.60982,-0.022 8.10404,8.86692 8.10404,8.86693 155.28613,0.74451 c 147.65972,0.70794 155.46268,0.83437 158.88082,2.57416 4.77602,2.43094 9.55085,8.00925 10.84519,12.67015 1.56191,5.62441 1.46494,310.19416 -0.10043,315.41889 -1.55196,5.17997 -6.92624,11.27787 -11.5666,13.12398 -3.27859,1.30434 -23.61972,1.55908 -155.27284,1.94456 -83.325,0.24398 -186.15,0.18401 -228.5,-0.13325 z"
         id="path3006"
         inkscape:connector-curvature="0" />
      <path
         style="color:#000000;fill:#4d4d4d;fill-opacity:1;fill-rule:nonzero;stroke-width:1;stroke-linecap:butt;stroke-linejoin:miter;stroke-miterlimit:4;stroke-opacity:1;stroke-dasharray:none;stroke-dashoffset:0;marker:none;visibility:visible;display:inline;overflow:visible;enable-background:accumulate"
         d="m 153.98404,750.00733 c -5.10155,-1.59115 -9.52436,-5.47467 -12.23346,-10.74178 -1.87446,-3.64437 -1.92474,-7.96059 -1.9765,-169.65637 -0.0526,-164.24934 -0.0329,-165.95644 1.95606,-169.85516 2.97977,-5.84085 8.13667,-9.88882 14.31408,-11.23603 3.79996,-0.82872 22.79058,-1.06673 66.68774,-0.8358 l 61.37481,0.32288 8.62519,9.25981 8.62518,9.25982 155,0.24018 c 148.57056,0.23023 155.14051,0.31679 158.3874,2.08692 4.3033,2.34606 8.00312,6.27185 9.72209,10.31587 1.10542,2.60059 1.35806,30.97874 1.42168,159.69471 0.0858,173.56809 0.64162,159.03727 -6.36585,166.42009 -6.31619,6.65452 10.05438,6.22949 -237.09682,6.1557 -186.29414,-0.0556 -224.80574,-0.29683 -228.4416,-1.43084 z"
         id="path3004"
         inkscape:connector-curvature="0" />
      <path
         style="color:#000000;fill:#4d4d4d;fill-opacity:1;fill-rule:nonzero;stroke-width:1;stroke-linecap:butt;stroke-linejoin:miter;stroke-miterlimit:4;stroke-opacity:1;stroke-dasharray:none;stroke-dashoffset:0;marker:none;visibility:visible;display:inline;overflow:visible;enable-background:accumulate"
         d="m 152.35714,749.10066 c -3.93318,-1.74767 -7.86072,-5.50304 -10.15327,-9.70819 -1.77469,-3.25526 -1.84673,-9.88532 -1.84673,-169.96582 l 0,-166.57842 3,-4.84394 c 1.97032,-3.18138 4.51269,-5.64285 7.40728,-7.17158 l 4.40729,-2.32764 64.34271,0 c 60.30327,0 64.45259,0.11145 66.09272,1.77523 0.9625,0.97637 4.5755,4.96728 8.02888,8.86868 l 6.27888,7.09345 155.22112,0.69358 155.22112,0.69357 4.5,2.24703 c 4.95131,2.47238 8.46264,6.91916 10.01455,12.68249 0.66531,2.47079 0.92069,56.62719 0.74787,158.59896 l -0.26242,154.84701 -2.42642,4.23626 c -1.33453,2.32994 -4.22102,5.47994 -6.41444,7 l -3.98802,2.76374 -228.58556,0.2143 c -188.64635,0.17687 -229.10973,-0.0186 -231.58556,-1.11871 z"
         id="path3002"
         inkscape:connector-curvature="0" />
      <path
         style="color:#000000;fill:#4d4d4d;fill-opacity:1;fill-rule:nonzero;stroke-width:1;stroke-linecap:butt;stroke-linejoin:miter;stroke-miterlimit:4;stroke-opacity:1;stroke-dasharray:none;stroke-dashoffset:0;marker:none;visibility:visible;display:inline;overflow:visible;enable-background:accumulate"
         d="m 156.85714,749.57533 c -5.67251,-1.15512 -9.8257,-3.84976 -12.75427,-8.27512 l -2.74573,-4.14908 0,-167.64606 0,-167.64606 2.75111,-4.15721 c 1.51312,-2.28647 4.66312,-5.17861 7,-6.42698 l 4.24889,-2.26975 64.33213,0 64.33214,0 3.06761,3.5 c 1.68719,1.925 5.43119,6.0875 8.32001,9.25 l 5.25239,5.75 153.34786,0.006 c 103.92087,0.004 154.56537,0.34368 157.12519,1.05455 2.07754,0.57694 5.31083,2.3954 7.18509,4.04102 7.06873,6.20642 6.61533,-5.86037 6.31137,167.97201 l -0.27379,156.57315 -2.75112,4.15708 c -1.51311,2.28639 -4.66311,5.17847 -7,6.42684 l -4.24888,2.26975 -225,0.14149 c -123.75,0.0778 -226.575,-0.17923 -228.5,-0.57123 z"
         id="path3000"
         inkscape:connector-curvature="0" />
      <path
         style="color:#000000;fill:#4d4d4d;fill-opacity:1;fill-rule:nonzero;stroke-width:1;stroke-linecap:butt;stroke-linejoin:miter;stroke-miterlimit:4;stroke-opacity:1;stroke-dasharray:none;stroke-dashoffset:0;marker:none;visibility:visible;display:inline;overflow:visible;enable-background:accumulate"
         d="m 154.97676,748.35692 c -5.11047,-1.47644 -7.94575,-3.69902 -10.68804,-8.37839 l -2.48645,-4.24281 -0.052,-166.21969 -0.052,-166.21969 2.82939,-4.55509 c 1.70698,-2.74808 4.4162,-5.38441 6.8294,-6.64564 3.93675,-2.05748 5.01531,-2.09054 68.20531,-2.09054 l 64.20531,0 5.27524,6 c 2.90137,3.3 6.70148,7.4625 8.44468,9.25 l 3.16946,3.25 154.13212,0 c 136.44264,0 154.55461,0.17653 157.8134,1.53814 4.73478,1.97831 7.02165,4.0887 9.32854,8.60861 1.79016,3.50748 1.86538,9.63184 1.96968,160.35971 l 0.10844,156.71297 -2.82609,4.54974 c -1.70387,2.74308 -4.41446,5.37988 -6.82609,6.64029 l -4,2.09054 -226,0.16423 c -144.59034,0.10508 -227.21768,-0.18756 -229.38038,-0.81238 z"
         id="path2998"
         inkscape:connector-curvature="0" />
    </g>
  </g>
</svg>
